<?xml version="1.0" standalone="no"?>
<svg version="1.0" xmlns="http://www.w3.org/2000/svg"
 width="517" height="649" viewBox="498 178 517 649"
 preserveAspectRatio="xMidYMid meet">

<g transform="translate(0.000000,1024.000000) scale(0.100000,-0.100000)"
fill="#000000" stroke="none">
<path d="M9883 8150 c-12 -74 -44 -191 -66 -240 -27 -59 -131 -202 -206 -282
-45 -48 -82 -90 -81 -93 1 -4 -19 -22 -44 -41 -26 -19 -46 -32 -46 -28 0 4
-15 -8 -34 -27 -48 -48 -288 -186 -401 -231 -75 -30 -261 -118 -392 -185 -23
-13 -43 -28 -43 -33 0 -6 -4 -9 -9 -6 -5 4 -23 -5 -39 -19 -16 -14 -32 -25
-35 -25 -16 0 -122 -72 -187 -128 -203 -173 -344 -393 -411 -642 -31 -118 -18
-118 21 0 70 214 188 406 342 557 158 156 297 241 658 403 170 76 370 183 484
258 135 88 303 256 370 370 84 142 144 334 134 434 -2 24 -6 13 -15 -42z
m-313 -584 c0 -2 -8 -10 -17 -17 -16 -13 -17 -12 -4 4 13 16 21 21 21 13z"/>
<path d="M5231 7694 c0 -11 3 -14 6 -6 3 7 2 16 -1 19 -3 4 -6 -2 -5 -13z"/>
<path d="M5245 7635 c4 -22 20 -74 36 -115 90 -225 261 -401 516 -529 139 -69
186 -84 632 -206 221 -60 362 -112 511 -188 121 -62 172 -100 262 -195 40 -42
60 -59 44 -37 -16 22 -43 55 -60 73 -31 34 -140 122 -150 122 -3 0 -35 18 -71
40 -36 22 -69 40 -74 40 -5 0 -55 22 -112 49 -98 46 -232 95 -289 105 -43 8
-222 56 -310 83 -47 15 -92 28 -100 29 -8 0 -45 13 -82 28 -37 15 -73 24 -79
20 -7 -4 -9 -3 -5 4 7 11 -55 37 -100 41 -8 0 -12 5 -9 11 3 6 -1 7 -10 4 -10
-4 -15 -2 -13 7 2 9 -5 13 -19 11 -12 -2 -25 2 -29 9 -4 8 -3 9 4 5 7 -4 12
-5 12 -2 0 3 -10 10 -21 17 -17 9 -20 8 -13 -3 4 -7 -5 -1 -20 14 -16 15 -32
26 -36 23 -4 -2 -16 5 -28 15 -12 11 -26 20 -33 20 -14 0 -209 197 -209 211 0
6 5 7 12 3 7 -4 8 -3 4 5 -4 6 -12 8 -18 5 -7 -4 -8 -2 -4 5 4 6 -6 28 -24 50
-32 42 -57 93 -97 200 -19 53 -23 58 -18 26z"/>
<path d="M9883 7558 c-14 -112 -17 -125 -43 -203 -24 -71 -73 -155 -92 -155
-7 0 -27 -20 -45 -43 -73 -95 -238 -252 -259 -245 -9 2 -55 -20 -64 -32 -10
-13 -77 -50 -82 -44 -9 9 -97 -39 -91 -49 3 -6 1 -7 -4 -4 -10 6 -141 -46
-240 -96 -26 -14 -91 -39 -143 -57 -52 -18 -113 -42 -135 -53 -22 -12 -44 -20
-48 -19 -5 1 -52 -18 -105 -43 -131 -62 -341 -204 -427 -290 -69 -69 -165
-196 -200 -265 -22 -45 -10 -32 48 52 66 93 198 231 284 295 40 29 75 53 78
53 4 0 19 9 34 19 45 33 240 126 351 169 58 22 186 70 285 107 336 125 509
221 656 365 119 117 194 243 234 396 13 51 32 234 23 234 -2 0 -9 -42 -15 -92z
m-823 -842 c0 -3 -4 -8 -10 -11 -5 -3 -10 -1 -10 4 0 6 5 11 10 11 6 0 10 -2
10 -4z"/>
<path d="M9802 7315 c-12 -25 -20 -45 -17 -45 7 0 47 81 43 86 -3 2 -14 -17
-26 -41z"/>
<path d="M7847 7333 c18 -2 50 -2 70 0 21 2 7 4 -32 4 -38 0 -55 -2 -38 -4z"/>
<path d="M7867 7290 c-54 -4 -101 -11 -105 -15 -4 -4 11 -5 33 -2 22 4 73 7
113 7 41 0 72 4 72 10 0 6 -3 9 -7 9 -5 -1 -52 -5 -106 -9z"/>
<path d="M7980 7254 c-61 -33 -137 -117 -167 -184 -38 -84 -40 -146 -7 -275
36 -145 44 -315 19 -418 -25 -104 -77 -209 -131 -267 -26 -27 -42 -50 -36 -50
18 0 97 95 129 156 75 141 88 326 40 533 -31 131 -34 207 -10 277 30 90 123
198 196 229 20 8 37 17 37 20 0 11 -27 2 -70 -21z"/>
<path d="M7656 7231 c-6 -9 -71 -33 -207 -76 -71 -22 -101 -27 -163 -23 -67 3
-75 2 -59 -10 27 -21 205 -9 279 19 52 20 174 86 174 95 0 8 -19 4 -24 -5z"/>
<path d="M7538 7061 c-14 -20 -36 -66 -48 -102 -24 -70 -24 -147 0 -359 18
-155 9 -242 -40 -405 -76 -251 -81 -279 -83 -425 -1 -119 2 -146 26 -234 29
-104 81 -214 158 -330 162 -247 220 -420 220 -658 0 -44 -5 -75 -15 -89 -8
-12 -12 -27 -10 -33 4 -11 -71 -176 -85 -186 -4 -3 -16 -19 -26 -35 -29 -44
-275 -277 -310 -295 -16 -8 -39 -21 -50 -30 -30 -24 -119 -77 -215 -128 -151
-79 -281 -183 -366 -294 -60 -77 -128 -228 -103 -228 5 0 9 10 9 23 0 45 81
170 164 252 95 95 146 130 339 232 237 125 328 191 463 330 119 124 198 277
226 443 29 172 -36 385 -197 645 -143 231 -201 375 -212 525 -8 116 9 224 62
405 24 83 49 181 55 219 15 97 13 251 -5 391 -22 166 -8 263 51 356 33 52 27
59 -8 10z"/>
<path d="M5400 6934 c0 -4 21 -43 48 -87 32 -55 77 -111 139 -172 186 -183
360 -255 853 -354 140 -28 300 -65 355 -82 175 -54 329 -151 399 -252 20 -28
36 -47 36 -42 0 17 -81 114 -132 157 -57 49 -194 128 -221 128 -10 0 -17 3
-17 8 0 10 -64 37 -135 55 -92 25 -374 79 -425 82 -25 2 -58 8 -73 14 -16 6
-61 18 -100 27 -75 17 -147 44 -256 97 -35 17 -72 30 -83 30 -10 -1 -16 1 -14
5 2 4 -14 16 -36 27 -22 11 -72 50 -110 87 -39 36 -76 69 -84 72 -8 3 -14 11
-14 17 0 8 5 7 18 -2 9 -7 6 -1 -7 13 -13 15 -27 25 -32 23 -4 -3 -10 -1 -14
5 -3 5 -1 10 6 10 6 0 -5 18 -24 39 -20 22 -43 54 -52 70 -14 29 -25 39 -25
25z"/>
<path d="M6730 6780 c8 -5 20 -10 25 -10 6 0 3 5 -5 10 -8 5 -19 10 -25 10 -5
0 -3 -5 5 -10z"/>
<path d="M7741 6764 c0 -11 3 -14 6 -6 3 7 2 16 -1 19 -3 4 -6 -2 -5 -13z"/>
<path d="M7422 6720 c0 -14 2 -19 5 -12 2 6 2 18 0 25 -3 6 -5 1 -5 -13z"/>
<path d="M7751 6735 c0 -5 6 -32 14 -60 8 -29 14 -39 14 -25 -1 24 -27 106
-28 85z"/>
<path d="M9551 6675 c-32 -53 -120 -143 -211 -216 -127 -102 -384 -218 -602
-274 -38 -9 -68 -21 -68 -27 0 -5 -5 -6 -10 -3 -11 7 -112 -23 -120 -36 -3 -4
-25 -9 -50 -12 -55 -6 -80 -16 -80 -30 0 -6 -3 -8 -6 -5 -18 18 -278 -122
-396 -214 -102 -79 -260 -249 -245 -264 2 -3 12 8 22 23 30 45 125 142 195
197 196 157 359 229 735 326 267 70 413 128 555 223 127 86 248 215 304 325
28 55 13 46 -23 -13z"/>
<path d="M7432 6650 c0 -14 2 -19 5 -12 2 6 2 18 0 25 -3 6 -5 1 -5 -13z"/>
<path d="M7105 6574 c6 -5 26 -23 45 -39 l35 -30 -25 28 c-14 16 -34 33 -45
39 -11 6 -15 6 -10 2z"/>
<path d="M7293 6281 c12 -22 23 -38 25 -36 5 5 -26 63 -37 69 -5 4 0 -12 12
-33z"/>
<path d="M7871 6274 c0 -11 3 -14 6 -6 3 7 2 16 -1 19 -3 4 -6 -2 -5 -13z"/>
<path d="M5860 6257 c0 -2 15 -16 33 -33 l32 -29 -29 33 c-28 30 -36 37 -36
29z"/>
<path d="M5947 6168 c41 -44 225 -146 321 -177 97 -32 115 -36 402 -75 99 -14
206 -35 248 -49 77 -27 91 -27 41 -2 -26 14 -79 30 -219 66 -19 5 -78 13 -130
19 -140 15 -180 21 -230 32 -25 5 -54 11 -64 14 -77 15 -216 79 -313 145 -45
29 -68 41 -56 27z"/>
<path d="M7135 6130 c10 -11 20 -20 23 -20 3 0 -3 9 -13 20 -10 11 -20 20 -23
20 -3 0 3 -9 13 -20z"/>
<path d="M7861 6048 c0 -9 -4 -25 -7 -35 -5 -17 -5 -17 6 0 6 10 9 25 7 35 -4
15 -5 15 -6 0z"/>
<path d="M7001 5837 c2 -1 13 -9 24 -17 19 -14 19 -14 6 3 -7 9 -18 17 -24 17
-6 0 -8 -1 -6 -3z"/>
<path d="M7292 5770 c0 -14 2 -19 5 -12 2 6 2 18 0 25 -3 6 -5 1 -5 -13z"/>
<path d="M7291 5714 c0 -11 3 -14 6 -6 3 7 2 16 -1 19 -3 4 -6 -2 -5 -13z"/>
<path d="M7490 5665 c26 -68 78 -152 123 -199 l49 -51 -46 55 c-26 30 -65 91
-87 135 -43 86 -57 107 -39 60z"/>
<path d="M7302 5615 c0 -16 2 -22 5 -12 2 9 2 23 0 30 -3 6 -5 -1 -5 -18z"/>
<path d="M7312 5560 c0 -14 2 -19 5 -12 2 6 2 18 0 25 -3 6 -5 1 -5 -13z"/>
<path d="M7542 5480 c45 -80 176 -237 202 -242 19 -4 8 11 -53 71 -42 42 -96
106 -120 144 -48 74 -64 89 -29 27z"/>
<path d="M7350 5445 c0 -18 193 -330 222 -360 19 -18 -14 39 -72 125 -31 47
-76 119 -99 160 -46 80 -51 88 -51 75z"/>
<path d="M7695 5380 c10 -11 20 -20 23 -20 3 0 -3 9 -13 20 -10 11 -20 20 -23
20 -3 0 3 -9 13 -20z"/>
<path d="M7780 5247 c0 -2 35 -31 78 -63 91 -68 262 -215 262 -225 0 -4 19
-22 43 -40 23 -17 2 8 -48 57 -105 104 -170 161 -240 210 -27 19 -60 41 -72
50 -13 9 -23 14 -23 11z"/>
<path d="M7890 5236 c0 -2 14 -14 30 -26 17 -12 30 -19 30 -16 0 2 -13 14 -30
26 -16 12 -30 19 -30 16z"/>
<path d="M7742 5210 c7 -10 14 -18 15 -16 6 6 -9 36 -18 36 -5 0 -4 -9 3 -20z"/>
<path d="M7849 5113 c34 -49 61 -94 61 -100 0 -6 4 -13 8 -15 13 -5 70 -114
104 -198 55 -136 85 -270 94 -425 16 -267 -101 -681 -250 -880 -20 -28 -58
-78 -84 -113 -47 -63 -199 -250 -303 -372 -97 -115 -210 -314 -239 -420 -14
-53 -6 -64 10 -13 16 51 100 209 153 287 23 35 78 105 122 156 339 394 457
573 540 824 54 160 69 266 69 466 0 146 -4 190 -22 262 -29 116 -82 252 -144
368 -50 94 -149 243 -169 256 -6 3 17 -34 50 -83z"/>
<path d="M7960 5186 c0 -3 28 -26 63 -51 34 -26 46 -32 27 -15 -43 38 -90 73
-90 66z"/>
<path d="M8170 5005 c120 -127 204 -270 246 -415 15 -51 19 -95 18 -205 -1
-129 -3 -148 -33 -240 -18 -55 -51 -134 -73 -175 -21 -41 -30 -64 -18 -50 35
42 108 201 125 270 8 36 18 112 21 170 5 91 3 117 -19 201 -26 99 -92 241
-149 320 -35 50 -105 125 -159 174 -18 17 0 -6 41 -50z"/>
<path d="M7846 5027 c3 -10 9 -15 12 -12 3 3 0 11 -7 18 -10 9 -11 8 -5 -6z"/>
<path d="M7621 4995 c0 -5 8 -26 19 -45 11 -19 19 -30 19 -25 0 6 -8 26 -19
45 -11 19 -19 31 -19 25z"/>
<path d="M7931 4925 c1 -19 18 -51 18 -35 0 8 -4 22 -9 30 -5 8 -9 11 -9 5z"/>
<path d="M8224 4847 c16 -20 30 -37 33 -37 7 0 -36 58 -49 66 -7 4 1 -9 16
-29z"/>
<path d="M7954 4850 c22 -95 28 -181 23 -315 -5 -156 -24 -251 -68 -352 -12
-26 -30 -69 -39 -96 -10 -26 -54 -100 -98 -165 -83 -122 -175 -220 -482 -518
-232 -224 -287 -292 -362 -444 -31 -62 -32 -71 -36 -209 -4 -152 4 -198 50
-303 32 -71 32 -52 0 22 -25 60 -27 75 -27 205 0 112 4 151 19 195 52 151 183
323 381 503 326 296 453 446 560 663 99 199 133 362 121 579 -9 164 -12 185
-31 225 -11 24 -14 27 -11 10z"/>
<path d="M7712 4700 c0 -14 2 -19 5 -12 2 6 2 18 0 25 -3 6 -5 1 -5 -13z"/>
<path d="M7711 4574 c0 -11 3 -14 6 -6 3 7 2 16 -1 19 -3 4 -6 -2 -5 -13z"/>
<path d="M8391 4294 c0 -11 3 -14 6 -6 3 7 2 16 -1 19 -3 4 -6 -2 -5 -13z"/>
<path d="M8063 4245 c0 -27 2 -38 4 -22 2 15 2 37 0 50 -2 12 -4 0 -4 -28z"/>
<path d="M8052 4150 c0 -19 2 -27 5 -17 2 9 2 25 0 35 -3 9 -5 1 -5 -18z"/>
<path d="M7805 4099 c-4 -6 -5 -12 -2 -15 2 -3 7 2 10 11 7 17 1 20 -8 4z"/>
<path d="M7399 4053 l-24 -28 28 24 c15 14 27 26 27 28 0 8 -8 1 -31 -24z"/>
<path d="M7279 3963 c-13 -16 -12 -17 4 -4 9 7 17 15 17 17 0 8 -8 3 -21 -13z"/>
<path d="M6899 3723 c-13 -16 -12 -17 4 -4 16 13 21 21 13 21 -2 0 -10 -8 -17
-17z"/>
<path d="M6814 3658 l-19 -23 23 19 c12 11 22 21 22 23 0 8 -8 2 -26 -19z"/>
<path d="M6916 3113 c-6 -14 -5 -15 5 -6 7 7 10 15 7 18 -3 3 -9 -2 -12 -12z"/>
<path d="M7479 3083 c-13 -16 -12 -17 4 -4 16 13 21 21 13 21 -2 0 -10 -8 -17
-17z"/>
<path d="M6822 2865 c0 -16 2 -22 5 -12 2 9 2 23 0 30 -3 6 -5 -1 -5 -18z"/>
<path d="M6822 2675 c0 -16 2 -22 5 -12 2 9 2 23 0 30 -3 6 -5 -1 -5 -18z"/>
<path d="M6831 2624 c0 -11 3 -14 6 -6 3 7 2 16 -1 19 -3 4 -6 -2 -5 -13z"/>
<path d="M6841 2580 c0 -8 9 -33 20 -55 10 -22 16 -29 13 -16 -10 37 -33 88
-33 71z"/>
<path d="M6880 2477 c0 -9 61 -107 67 -107 2 0 -6 17 -18 38 -34 56 -49 77
-49 69z"/>
<path d="M6976 2325 c33 -49 85 -105 96 -105 5 0 -8 17 -29 38 -21 20 -51 53
-67 72 l-28 35 28 -40z"/>
</g>
</svg>
